# File created by Blade
# Date/Time:  Tue Jan 27 18:50:05 2015
# Frame Rate: 120.000 fps
#------------------------------------------------------
:FULLY-SPECIFIED
:DEGREES
2671
root 1.061563 32.341408 -7.070860 45.891834 -56.360422 -42.884336
Spine 12.378491 10.288869 7.160252
Head -9.204027 16.569098 17.507288
LeftShoulder -10.261260 7.916591 19.547286
LeftArm 30.997432 -5.954410 -83.755300
LeftForeArm -22.362733 -0.000000 142.218003
LeftHand -18.377209 -0.000000 -3.036490
LeftHandThumb1 -26.253704 0.000000 33.147579
RightShoulder 4.055283 22.790612 -7.503750
RightArm 54.958909 -66.678219 65.236638
RightForeArm -12.370822 -0.000000 61.417780
RightHand -7.668462 -0.000000 2.191344
RightHandThumb1 -24.326973 -0.000000 -32.862282
LeftUpLeg -21.501365 21.055217 5.061400
LeftLeg 22.666099 -0.000000 -0.000000
LeftFoot -42.656960 40.365570 -33.415024
LeftToeBase 6.901749 -0.000000 -0.000000
RightUpLeg -74.415366 -44.767469 15.336994
RightLeg 100.501288 -0.000000 -0.000000
RightFoot -10.512713 -15.221323 15.272659
RightToeBase 13.087317 -0.000000 -0.000000
2672
root 1.071196 32.344639 -7.063924 45.927707 -56.167527 -43.060722
Spine 12.516494 10.212441 7.394615
Head -9.287831 16.584666 17.742634
LeftShoulder -10.145542 7.803812 19.674127
LeftArm 31.104530 -5.818656 -83.808408
LeftForeArm -22.397454 -0.000000 142.000359
LeftHand -18.508471 0.000000 -3.163522
LeftHandThumb1 -26.253704 0.000000 33.147579
RightShoulder 3.939501 22.730765 -7.410218
RightArm 54.583646 -66.541840 65.543105
RightForeArm -12.414567 -0.000000 61.414453
RightHand -7.641350 -0.000000 2.365163
RightHandThumb1 -24.326973 -0.000000 -32.862282
LeftUpLeg -21.502643 21.114538 5.249422
LeftLeg 22.802265 -0.000000 -0.000000
LeftFoot -42.636103 40.328843 -33.356070
LeftToeBase 7.360232 -0.000000 -0.000000
RightUpLeg -74.392083 -44.777147 14.649658
RightLeg 98.253113 -0.000000 -0.000000
RightFoot -10.942597 -15.718446 14.968577
RightToeBase 12.902573 -0.000000 -0.000000
2673
root 1.081433 32.352099 -7.060988 45.982311 -55.935912 -43.242281
Spine 12.659964 10.114760 7.642474
Head -9.423651 16.651748 18.006575
LeftShoulder -10.047800 7.730094 19.821520
LeftArm 31.256171 -5.552303 -83.854449
LeftForeArm -21.986180 -0.000000 141.786828
LeftHand -18.567246 -0.000000 -2.754363
LeftHandThumb1 -26.253704 0.000000 33.147579
RightShoulder 3.831122 22.642338 -7.355970
RightArm 54.194753 -66.381879 65.882409
RightForeArm -12.476654 0.000000 61.451216
RightHand -7.615577 0.000000 2.381915
RightHandThumb1 -24.326973 -0.000000 -32.862282
LeftUpLeg -21.520972 21.180201 5.461000
LeftLeg 22.921157 -0.000000 -0.000000
LeftFoot -42.545965 40.274744 -33.205382
LeftToeBase 7.353235 -0.000000 -0.000000
RightUpLeg -74.260512 -44.753642 13.922472
RightLeg 95.847423 -0.000000 -0.000000
RightFoot -11.669333 -16.109036 15.106416
RightToeBase 13.280771 -0.000000 -0.000000
2674
root 1.094756 32.362371 -7.060126 45.994006 -55.643049 -43.379141
Spine 12.826006 9.954685 7.929351
Head -9.575337 16.709123 18.261838
LeftShoulder -9.920932 7.637440 19.956707
LeftArm 31.336254 -5.360144 -83.945199
LeftForeArm -21.689382 0.000000 141.650930
LeftHand -18.632180 -0.000000 -2.758875
LeftHandThumb1 -26.253704 0.000000 33.147579
RightShoulder 3.760680 22.640505 -7.350894
RightArm 53.427649 -66.202444 66.621432
RightForeArm -12.630994 -0.000000 61.495458
RightHand -7.571642 -0.000000 2.415823
RightHandThumb1 -24.326973 -0.000000 -32.862282
LeftUpLeg -21.530942 21.160880 5.704428
LeftLeg 23.001275 -0.000000 -0.000000
LeftFoot -42.481332 40.222389 -33.118516
LeftToeBase 7.391648 -0.000000 -0.000000
RightUpLeg -74.012136 -44.755307 13.139806
RightLeg 93.286351 -0.000000 -0.000000
RightFoot -12.351678 -16.500068 15.184877
RightToeBase 12.427386 -0.000000 -0.000000
2675
root 1.111223 32.375533 -7.060248 46.000073 -55.349706 -43.496203
Spine 13.006141 9.771773 8.203075
Head -9.771778 16.764054 18.481362
LeftShoulder -9.834316 7.506413 20.072937
LeftArm 31.421554 -5.153487 -84.016498
LeftForeArm -21.357891 -0.000000 141.508305
LeftHand -18.631489 -0.000000 -2.401493
LeftHandThumb1 -26.253704 0.000000 33.147579
RightShoulder 3.692652 22.667353 -7.302181
RightArm 52.765790 -66.056282 67.227672
RightForeArm -12.780236 -0.000000 61.571284
RightHand -7.616232 -0.000000 2.373324
RightHandThumb1 -24.326973 -0.000000 -32.862282
LeftUpLeg -21.556013 21.127064 5.933210
LeftLeg 23.062820 -0.000000 -0.000000
LeftFoot -42.287569 40.303835 -32.901509
LeftToeBase 6.614004 -0.000000 -0.000000
RightUpLeg -73.670386 -44.727129 12.293374
RightLeg 90.592073 -0.000000 -0.000000
RightFoot -13.134203 -16.924065 15.278904
RightToeBase 12.070853 -0.000000 -0.000000
2676
root 1.129366 32.389865 -7.061347 46.055095 -55.019369 -43.622962
Spine 13.145875 9.571689 8.527245
Head -9.957286 16.834436 18.647457
LeftShoulder -9.772392 7.445394 20.129971
LeftArm 31.551302 -4.964772 -84.072270
LeftForeArm -21.122173 -0.000000 141.397630
LeftHand -18.595866 -0.000000 -2.249105
LeftHandThumb1 -26.253704 0.000000 33.147579
RightShoulder 3.645632 22.694035 -7.299175
RightArm 52.142597 -65.912210 67.787881
RightForeArm -12.903713 -0.000000 61.666898
RightHand -7.597393 -0.000000 2.531818
RightHandThumb1 -24.326973 -0.000000 -32.862282
LeftUpLeg -21.617621 21.092393 6.174496
LeftLeg 23.084718 -0.000000 -0.000000
LeftFoot -42.129430 40.277750 -32.735909
LeftToeBase 6.562798 -0.000000 -0.000000
RightUpLeg -73.252788 -44.670982 11.417997
RightLeg 87.745217 -0.000000 -0.000000
RightFoot -13.873744 -17.345204 15.410724
RightToeBase 12.172795 -0.000000 -0.000000
2677
root 1.148686 32.406633 -7.063844 46.119211 -54.699009 -43.738053
Spine 13.283291 9.372975 8.821041
Head -10.161531 16.958054 18.850597
LeftShoulder -9.704218 7.351378 20.200400
LeftArm 31.627921 -4.795706 -84.100763
LeftForeArm -20.937835 -0.000000 141.331620
LeftHand -18.577067 -0.000000 -2.160025
LeftHandThumb1 -26.253704 0.000000 33.147579
RightShoulder 3.534009 22.657663 -7.296459
RightArm 52.004002 -65.814835 67.892492
RightForeArm -13.028088 0.000000 61.722686
RightHand -7.562970 -0.000000 2.597312
RightHandThumb1 -24.326973 -0.000000 -32.862282
LeftUpLeg -21.681238 21.096124 6.393474
LeftLeg 23.069822 -0.000000 -0.000000
LeftFoot -41.948269 40.138368 -32.587475
LeftToeBase 7.221489 -0.000000 -0.000000
RightUpLeg -72.770207 -44.581906 10.513360
RightLeg 84.793535 -0.000000 -0.000000
RightFoot -14.399748 -17.799674 15.440818
RightToeBase 11.472173 -0.000000 -0.000000
